<svg width="13" height="12" viewBox="0 0 13 12" fill="none" xmlns="http://www.w3.org/2000/svg">
<g clip-path="url(#clip0_445_141)">
<path d="M4.4635 9.91695L2.18486 7.48639C2.12527 7.42206 2.05431 7.37098 1.97608 7.33612C1.89785 7.30126 1.81391 7.28331 1.72913 7.28331C1.64435 7.28331 1.56041 7.30126 1.48218 7.33612C1.40395 7.37098 1.33298 7.42206 1.2734 7.48639C1.21309 7.54995 1.1652 7.62565 1.13252 7.70909C1.09984 7.79254 1.08301 7.88207 1.08301 7.97251C1.08301 8.06294 1.09984 8.15247 1.13252 8.23592C1.1652 8.31936 1.21309 8.39506 1.2734 8.45862L4.00126 11.3683C4.25517 11.6392 4.66533 11.6392 4.91923 11.3683L11.8203 4.01417C11.8806 3.95061 11.9285 3.87492 11.9612 3.79147C11.9938 3.70803 12.0107 3.6185 12.0107 3.52806C12.0107 3.43763 11.9938 3.34809 11.9612 3.26465C11.9285 3.1812 11.8806 3.10551 11.8203 3.04195C11.7607 2.97762 11.6897 2.92654 11.6115 2.89168C11.5333 2.85682 11.4493 2.83887 11.3645 2.83887C11.2798 2.83887 11.1958 2.85682 11.1176 2.89168C11.0394 2.92654 10.9684 2.97762 10.9088 3.04195L4.4635 9.91695Z" fill="white"/>
</g>
<defs>
<clipPath id="clip0_445_141">
<rect width="12.5" height="11.6667" fill="white" transform="translate(0.166992 0.333496)"/>
</clipPath>
</defs>
</svg>
