<svg width="126" height="81" viewBox="0 0 126 81" fill="none" xmlns="http://www.w3.org/2000/svg">
<g clip-path="url(#clip0_58_421)">
<path d="M68.0819 22.2804C68.0819 22.2804 69.5096 10.91 86.8116 15.0412L87.2439 16.3202C78.2195 15.54 75.6524 18.8782 74.9189 22.3188L68.0819 22.2804Z" fill="white"/>
<path d="M78.7958 22.2804C78.7958 22.2804 80.3283 17.855 87.3879 18.4434C94.4476 19.0317 96.1503 22.2804 96.1503 22.2804H78.7958Z" fill="white"/>
<path d="M59.0969 22.2804C59.0969 22.2804 57.6561 10.91 40.3672 15.0412L39.9218 16.3202C48.9593 15.54 51.5264 18.8782 52.2599 22.3188L59.0969 22.2804Z" fill="white"/>
<path d="M48.383 22.2804C48.383 22.2804 46.8374 17.855 39.7778 18.4434C32.7181 19.0317 31.0285 22.2804 31.0285 22.2804H48.383Z" fill="white"/>
<path d="M63.8775 0C60.8519 0 57.9502 1.1737 55.8108 3.2629C53.6714 5.35209 52.4694 8.18564 52.4694 11.1402C52.4694 11.5111 52.4694 11.8693 52.4694 12.2274C55.0563 12.5209 57.4627 13.6688 59.2898 15.4809C61.117 17.2931 62.255 19.6606 62.5154 22.1909C62.9497 22.2466 63.3871 22.2765 63.8252 22.2804C64.2632 22.276 64.7006 22.2461 65.1349 22.1909C65.3901 19.6608 66.5247 17.2923 68.3501 15.4795C70.1755 13.6668 72.5815 12.5191 75.1678 12.2274C75.1877 11.8652 75.1877 11.5023 75.1678 11.1402C75.1678 8.18564 73.9659 5.35209 71.8264 3.2629C69.687 1.1737 66.7853 0 63.7597 0M63.8383 11.3832C62.2796 11.3832 61.0092 8.72287 61.0092 7.20084C61.0092 6.46813 61.3072 5.76545 61.8378 5.24734C62.3683 4.72924 63.0879 4.43818 63.8383 4.43818C64.5886 4.43818 65.3082 4.72924 65.8387 5.24734C66.3693 5.76545 66.6674 6.46813 66.6674 7.20084C66.6674 8.72287 65.3576 11.3832 63.8383 11.3832Z" fill="white"/>
<path d="M68.6713 31.0673C69.562 31.2975 69.3786 32.0265 69.0642 32.6916C68.9464 32.9602 64.1395 43.1539 64.1395 43.1539H63.8644C63.8644 43.1539 59.0576 32.9218 58.9397 32.6916C58.6254 32.0265 58.442 31.2975 59.3326 31.0673V30.0057H51.0025V31.0673C51.0025 31.0673 51.9848 31.2591 51.9848 32.0137V61.1625C51.9848 61.9299 51.0025 62.1217 51.0025 62.1217V63.1833H58.5206V62.1217C58.5206 62.1217 57.5383 61.9299 57.5383 61.1625V41.0692H57.8133L63.8644 53.936H64.1395L70.1644 41.0692H70.4264V61.1625C70.4264 61.9299 69.4441 62.1217 69.4441 62.1217V63.1833H76.9622V62.1217C76.9622 62.1217 75.9798 61.9299 75.9798 61.1625V32.0137C75.9798 31.2591 76.9622 31.0673 76.9622 31.0673V30.0057H68.632L68.6713 31.0673Z" fill="white"/>
<path d="M98.2983 38.3576C98.2983 31.3998 93.0593 30.0057 87.0736 30.0057H80.8522V31.0673C80.8522 31.0673 81.8345 31.2591 81.8345 32.0137V61.1625C81.8345 61.9299 80.8522 62.1217 80.8522 62.1217V63.1833H84.978H87.7678C93.7665 63.1833 99.6343 60.6253 100.067 54.5628C100.355 50.4571 97.5518 46.8887 95.6657 45.0597C97.4032 43.231 98.3428 40.8132 98.2852 38.3193M92.8497 38.7286C92.8566 40.2722 92.3145 41.7703 91.316 42.967C90.3174 44.1637 88.9244 44.9848 87.3748 45.2899V34.1497C91.2256 34.1497 92.8497 35.4287 92.8497 38.7286ZM87.3748 59.0137V49.37C88.9074 49.031 90.3935 48.5158 91.8019 47.8351C93.3995 49.701 94.3205 52.0303 94.4214 54.4604C94.4214 58.0673 91.2387 59.0521 87.3879 59.0521" fill="white"/>
<path d="M8.80166 34.009C8.76152 33.4149 8.85136 32.8192 9.0652 32.2616C9.27905 31.7039 9.61199 31.1972 10.0419 30.7749C10.4718 30.3527 10.9889 30.0247 11.5587 29.8126C12.1284 29.6006 12.7379 29.5095 13.3466 29.5452C16.4245 29.5452 18.0094 33.2544 18.0094 33.2544L19.1096 33.5102L20.5372 26.1047C18.0094 26.1047 16.1495 24.9408 13.2418 24.9408C8.31705 24.9408 3.31372 27.307 3.31372 33.3183C3.31372 42.8598 17.3283 48.3468 17.3283 55.3558C17.3283 60.4718 13.399 61.9043 10.2948 61.9043C5.23909 61.9043 2.43618 56.315 2.43618 56.315L1.30977 56.1743L0 64.5135L1.1264 64.667C1.7143 64.4338 2.37219 64.4338 2.96009 64.667C5.37014 66.0903 8.13318 66.8422 10.9497 66.8413C16.9353 66.8413 22.659 62.9275 22.7376 55.1511C22.921 45.0085 8.63139 39.496 8.73617 34.009" fill="white"/>
<path d="M47.7281 60.8044C47.5316 59.8579 41.9651 32.666 41.8603 32.2568C41.7555 31.8475 41.8603 31.1824 42.5938 31.0673V30.0057H30.6617V31.0673C31.4083 31.1824 31.4869 31.7835 31.3952 32.2568C31.3035 32.73 25.7239 59.8579 25.5274 60.8044C25.4576 61.077 25.3293 61.332 25.1509 61.5525C24.9725 61.773 24.7482 61.954 24.4927 62.0834V63.145H31.5524V62.0834C31.1856 61.9938 30.7796 61.6741 30.9761 60.7148C30.9761 60.4334 31.5262 58.0289 32.1942 54.7674H41.0613C41.7293 58.0289 42.2139 60.4334 42.2794 60.7148C42.4759 61.6741 42.0698 61.9938 41.7031 62.0834V63.145H48.7628V62.0834C48.5073 61.954 48.283 61.773 48.1046 61.5525C47.9262 61.332 47.7979 61.077 47.7281 60.8044ZM33.0586 50.5722C34.6303 42.8981 36.4902 33.7404 36.4902 33.7404H36.7653C36.7653 33.7404 38.6252 42.8981 40.1969 50.5722H33.0586Z" fill="white"/>
<path d="M124.978 60.8044C124.782 59.8579 119.215 32.666 119.111 32.2568C119.006 31.8475 119.111 31.1824 119.844 31.0673V30.0057H107.912V31.0673C108.659 31.1824 108.737 31.7835 108.632 32.2568C108.528 32.73 102.909 59.8579 102.778 60.8044C102.708 61.077 102.58 61.332 102.401 61.5525C102.223 61.773 101.998 61.954 101.743 62.0834V63.145H108.79V62.0834C108.436 61.9938 108.03 61.6741 108.226 60.7148C108.226 60.4334 108.776 58.0289 109.431 54.7674H118.312C118.98 58.0289 119.464 60.4334 119.517 60.7148C119.713 61.6741 119.307 61.9938 118.953 62.0834V63.145H126V62.0834C125.747 61.9526 125.525 61.771 125.349 61.5506C125.173 61.3301 125.047 61.0758 124.978 60.8044ZM110.309 50.5722C111.868 42.8981 113.741 33.7404 113.741 33.7404H114.016L117.434 50.5722H110.309Z" fill="white"/>
<path d="M11.701 73.3794H11.3033H11.2033V73.4794V80.6419V80.7419H11.3033H12.194H12.294V80.6419V77.8769H13.2926C13.7597 77.8912 14.2235 77.796 14.6453 77.5993C15.0245 77.4316 15.3477 77.1624 15.5774 76.8225L15.5775 76.8225L15.5796 76.8191C15.8031 76.4581 15.9214 76.044 15.9214 75.6218C15.9214 75.1995 15.8031 74.7854 15.5796 74.4244L15.5797 74.4243L15.5768 74.42C15.3435 74.0838 15.0216 73.8158 14.6454 73.6442L14.6455 73.6442L14.644 73.6436C14.2194 73.458 13.7578 73.3677 13.2929 73.3794H12.294H12.194H11.801H11.701ZM12.294 76.8583V74.398H13.2942V74.3981L13.2983 74.3979C13.6859 74.3821 14.0679 74.4917 14.3848 74.7092C14.5132 74.825 14.6158 74.9653 14.6862 75.1213C14.7574 75.2791 14.7942 75.4495 14.7942 75.6218C14.7942 75.794 14.7574 75.9644 14.6862 76.1222C14.6156 76.2786 14.5127 76.4192 14.3838 76.5352C14.0717 76.7621 13.6882 76.8765 13.2988 76.8584L13.2988 76.8583H13.2942H12.294Z" fill="white" stroke="white" stroke-width="0.2"/>
<path d="M19.7168 73.3794H19.3322H19.2322V73.4794V80.6419V80.7419H19.3322H20.2229H20.3229V80.6419V77.8769H21.1297L23.1408 80.6999L23.1707 80.7419H23.2223H24.3225H24.5212L24.4028 80.5823L22.2966 77.744C22.4254 77.7043 22.5517 77.656 22.6745 77.5992C23.051 77.4281 23.3731 77.16 23.6058 76.8233L23.6059 76.8234L23.6085 76.8191C23.832 76.4581 23.9503 76.044 23.9503 75.6217C23.9503 75.1995 23.832 74.7854 23.6085 74.4244L23.6087 74.4243L23.605 74.4191C23.3688 74.0865 23.0484 73.8197 22.6753 73.6447L22.6754 73.6446L22.6726 73.6434C22.2476 73.4595 21.7865 73.3694 21.322 73.3794H20.3229H20.2229H19.8168H19.7168ZM20.3229 76.9095V74.3468H21.3231V74.3468L21.326 74.3468C21.5954 74.3389 21.8628 74.3928 22.1067 74.504L22.1067 74.5041L22.1103 74.5056C22.3253 74.5937 22.5093 74.7405 22.6405 74.9278C22.7664 75.1393 22.8289 75.3808 22.8211 75.6249L22.8208 75.6249L22.8211 75.6315C22.8293 75.8717 22.7666 76.1093 22.6404 76.3159C22.5109 76.5081 22.3264 76.6595 22.1094 76.7511L22.1094 76.751L22.1067 76.7522C21.8628 76.8635 21.5954 76.9174 21.326 76.9095L21.326 76.9095H21.3231H20.3229Z" fill="white" stroke="white" stroke-width="0.2"/>
<path d="M27.3601 75.5649L27.3601 75.5649L27.3597 75.566C26.9835 76.5241 26.9835 77.5843 27.3597 78.5425L27.3597 78.5425C27.5388 78.9977 27.8145 79.4105 28.1685 79.7538C28.5126 80.0985 28.9247 80.3712 29.3797 80.5554C29.8599 80.7528 30.3766 80.8511 30.8974 80.8442C31.4184 80.8523 31.9355 80.7539 32.4154 80.5554C32.8704 80.3711 33.2825 80.0985 33.6265 79.7538C33.9806 79.4105 34.2562 78.9977 34.4353 78.5425L34.4353 78.5425C34.8115 77.5843 34.8115 76.5241 34.4353 75.566L34.4353 75.566L34.4349 75.5649C34.2525 75.1156 33.9773 74.708 33.6266 74.3674C33.2825 74.0228 32.8704 73.7501 32.4154 73.5659C31.9355 73.3673 31.4184 73.269 30.8974 73.277C30.3766 73.2701 29.8599 73.3684 29.3797 73.5659C28.9246 73.7501 28.5125 74.0227 28.1684 74.3674C27.8177 74.708 27.5425 75.1156 27.3601 75.5649ZM30.8975 79.7751C30.4137 79.7751 29.9385 79.6515 29.5192 79.4166C29.1201 79.1876 28.7937 78.8558 28.5753 78.4581C28.3424 78.0272 28.2208 77.5476 28.2208 77.0606C28.2208 76.5739 28.3423 76.0944 28.5751 75.6637C28.8035 75.2584 29.1393 74.9202 29.5477 74.6844C29.9563 74.4485 30.4225 74.3239 30.8975 74.3239C31.3725 74.3239 31.8387 74.4485 32.2473 74.6844C32.6557 74.9202 32.9915 75.2584 33.2199 75.6637C33.4527 76.0944 33.5742 76.5739 33.5742 77.0606C33.5742 77.5476 33.4526 78.0272 33.2197 78.4581C33.0014 78.8558 32.6749 79.1876 32.2759 79.4165C31.8565 79.6514 31.3813 79.7751 30.8975 79.7751Z" fill="white" stroke="white" stroke-width="0.2"/>
<path d="M38.7609 73.3794H38.3632H38.2632V73.4794V80.6419V80.7419H38.3632H39.2538H39.3538V80.6419V77.2629H42.0306H42.1306V77.1629V76.3444V76.2444H42.0306H39.3538V74.3979H42.1353H42.2353V74.2979V73.4794V73.3794H42.1353H39.3538H39.2538H38.8609H38.7609Z" fill="white" stroke="white" stroke-width="0.2"/>
<path d="M46.2135 73.3794H45.8158H45.7158V73.4794V80.6419V80.7419H45.8158H46.2135H46.3135H46.7064H46.8064H50.0071H50.1071V80.6419V79.8233V79.7233H50.0071H46.8064V77.2629H49.7975H49.8975V77.1629V76.3444V76.2444H49.7975H46.8064V74.3979H50.0071H50.1071V74.2979V73.4794V73.3794H50.0071H46.8064H46.7064H46.3135H46.2135Z" fill="white" stroke="white" stroke-width="0.2"/>
<path d="M54.6055 79.1618L54.6057 79.1616L54.6006 79.1559C54.3995 78.9289 54.2237 78.6817 54.076 78.4186L54.023 78.3243L53.9332 78.3844L53.2259 78.8577L53.1527 78.9067L53.1921 78.9855C53.357 79.3156 53.5698 79.6206 53.8237 79.8913C54.0834 80.175 54.3955 80.408 54.7436 80.5781C55.1028 80.7548 55.4995 80.846 55.9015 80.8442L55.9017 80.8442C56.1978 80.8421 56.4915 80.7928 56.7713 80.6982L56.7713 80.6983L56.7725 80.6978C57.0471 80.6011 57.3015 80.4566 57.5235 80.2712C57.7507 80.0829 57.9339 79.849 58.0606 79.5852L58.0611 79.5842C58.1906 79.3063 58.2564 79.004 58.2539 78.6986C58.2612 78.3916 58.1949 78.0873 58.0605 77.81L58.0605 77.81L58.0596 77.8082C57.9393 77.572 57.7767 77.3588 57.5796 77.1788C57.3923 77.0068 57.1825 76.8599 56.9558 76.7417L56.9559 76.7415L56.9496 76.7388L56.334 76.4702L56.3342 76.4696L56.3233 76.4662C55.9787 76.3603 55.6471 76.2174 55.3348 76.04L55.3349 76.0399L55.3313 76.0381C55.1355 75.9371 54.9685 75.7906 54.8452 75.6117C54.7524 75.4624 54.7037 75.2912 54.7044 75.1169L54.7044 75.1146C54.7024 75.0122 54.7219 74.9104 54.7616 74.8154C54.801 74.7211 54.8596 74.6353 54.9341 74.5634C55.0414 74.4692 55.1677 74.3977 55.3051 74.3536C55.4432 74.3093 55.5894 74.2938 55.7341 74.308L55.734 74.3088L55.747 74.3084C55.9794 74.301 56.2099 74.3499 56.418 74.4506C56.6018 74.5535 56.7645 74.6882 56.8984 74.8482C57.0298 75.0055 57.1444 75.1755 57.2405 75.3554L57.289 75.4463L57.3784 75.3952L58.138 74.9603L58.2202 74.9133L58.1778 74.8287C58.0429 74.5597 57.8699 74.3108 57.6639 74.0892L57.6638 74.0891C57.4396 73.8487 57.1722 73.6507 56.8751 73.5047L56.8751 73.5047L56.873 73.5037C56.5367 73.3483 56.1684 73.2707 55.7967 73.277C55.4 73.2667 55.0069 73.3535 54.6532 73.5297C54.3225 73.6791 54.043 73.9194 53.849 74.2215C53.6551 74.5235 53.5551 74.8741 53.5613 75.2309C53.5514 75.5331 53.6235 75.8325 53.7702 76.0985L53.7702 76.0985L53.7708 76.0996C53.9033 76.3328 54.081 76.5383 54.294 76.7046L54.294 76.7046L54.295 76.7054C54.4987 76.8602 54.7216 76.989 54.9585 77.0888L54.9584 77.0888L54.9599 77.0894L55.5624 77.3324L55.5624 77.3325L55.5663 77.3339C55.8523 77.4355 56.1108 77.5365 56.3556 77.6497C56.574 77.7576 56.7667 77.9087 56.9215 78.0932C57.0637 78.3008 57.1345 78.5469 57.124 78.7959L57.1238 78.7959L57.124 78.8028C57.1276 78.9393 57.101 79.075 57.0459 79.2006C56.9908 79.3261 56.9085 79.4387 56.8045 79.5306C56.5656 79.7372 56.2523 79.8435 55.9328 79.8258L55.9328 79.8255L55.9259 79.8256C55.6682 79.829 55.4142 79.767 55.1887 79.6457L55.1888 79.6457L55.1864 79.6445C54.9572 79.529 54.7585 79.3638 54.6055 79.1618Z" fill="white" stroke="white" stroke-width="0.2"/>
<path d="M62.8037 79.1605L62.8038 79.1605L62.8006 79.1568C62.6038 78.9293 62.4323 78.6822 62.2888 78.4196L62.2368 78.3244L62.1461 78.384L61.4258 78.8572L61.3518 78.9058L61.3911 78.9852C61.5562 79.3187 61.774 79.6246 62.0364 79.8918C62.2934 80.1783 62.6062 80.4116 62.9564 80.5784C63.311 80.7533 63.7025 80.8443 64.0995 80.8442C64.6976 80.8532 65.2791 80.6498 65.7358 80.2712L65.7358 80.2712L65.7365 80.2706C65.9598 80.0817 66.1386 79.8475 66.2603 79.5842C66.3896 79.3066 66.4554 79.0047 66.453 78.6996C66.4669 78.3913 66.4001 78.0847 66.2591 77.8088C66.1435 77.5733 65.9855 77.3601 65.7927 77.1795L65.7927 77.1795L65.7908 77.1778C65.6017 77.0095 65.3931 76.8634 65.1694 76.7424L65.1696 76.7421L65.1618 76.7387L64.5462 76.4702L64.5465 76.4695L64.5347 76.4659C64.1853 76.3623 63.8495 76.2194 63.5341 76.04L63.5341 76.04L63.5304 76.0381C63.3346 75.9371 63.1677 75.7906 63.0444 75.6117C62.9516 75.4624 62.9029 75.2912 62.9035 75.1169L62.9035 75.1167C62.9038 75.0134 62.9254 74.9111 62.9671 74.8159C63.0087 74.7212 63.0695 74.6354 63.1459 74.5637C63.2514 74.4703 63.3759 74.3991 63.5113 74.355C63.6472 74.3108 63.7911 74.2948 63.9338 74.308L63.9338 74.3087L63.9456 74.3084C64.1823 74.3024 64.417 74.3513 64.6305 74.4508C64.8098 74.5534 64.9679 74.6878 65.0965 74.8469L65.0965 74.8469L65.0975 74.8481C65.229 75.0055 65.3436 75.1754 65.4396 75.3554L65.4881 75.4463L65.5776 75.3952L66.3372 74.9603L66.4182 74.914L66.3776 74.83C66.2476 74.5612 66.079 74.312 65.8769 74.09L65.8769 74.0899L65.8753 74.0883C65.6493 73.851 65.383 73.6537 65.0883 73.5052L65.0883 73.5051L65.0848 73.5035C64.744 73.348 64.3714 73.2705 63.9955 73.2771C63.5992 73.2694 63.2068 73.3561 62.8522 73.5298C62.5274 73.6804 62.2537 73.9196 62.0642 74.2189L62.0642 74.2189L62.0634 74.2201C61.8914 74.5005 61.7925 74.8181 61.7756 75.145C61.7587 75.4718 61.8245 75.7976 61.9669 76.0936L61.9667 76.0937L61.97 76.0996C62.1024 76.3328 62.2802 76.5383 62.4931 76.7046L62.4931 76.7046L62.4942 76.7054C62.6975 76.8598 62.9199 76.9885 63.1562 77.0882C63.3383 77.1719 63.4534 77.2142 63.6336 77.2804C63.6771 77.2964 63.7243 77.3138 63.7772 77.3334C64.0511 77.4353 64.3098 77.5364 64.5548 77.6497C64.7738 77.7579 64.967 77.9096 65.1221 78.0949C65.2741 78.2973 65.3497 78.5446 65.3363 78.7948L65.3359 78.7948L65.3362 78.8035C65.3409 78.9407 65.3137 79.0771 65.2566 79.2027C65.1994 79.3283 65.1138 79.4398 65.0058 79.5287L65.0058 79.5287L65.0041 79.5302C64.7682 79.7341 64.4596 79.8403 64.1441 79.8257L64.1441 79.8255L64.1378 79.8256C63.8759 79.83 63.6173 79.7679 63.3876 79.6455L63.3869 79.6452C63.1592 79.5259 62.9604 79.3607 62.8037 79.1605Z" fill="white" stroke="white" stroke-width="0.2"/>
<path d="M71.1551 73.4794V73.3794H71.0551H70.1645H70.0645V73.4794V80.6419V80.7419H70.1645H71.0551H71.1551V80.6419V73.4794Z" fill="white" stroke="white" stroke-width="0.2"/>
<path d="M74.9966 75.5647L74.9966 75.5647L74.9961 75.566C74.6199 76.5241 74.6199 77.5843 74.9961 78.5425L74.9962 78.5428C75.1753 78.9944 75.4457 79.406 75.7911 79.7531L75.7911 79.7532L75.7922 79.7543C76.1433 80.0961 76.5589 80.3681 77.0158 80.5553C77.4961 80.7528 78.0129 80.8511 78.5338 80.8442C79.0549 80.8523 79.5721 80.7539 80.0522 80.5552L80.0529 80.5549C80.5037 80.3644 80.914 80.0929 81.2624 79.7543L81.2624 79.7543L81.2631 79.7536C81.6124 79.4071 81.8872 78.9957 82.0712 78.5436L82.0717 78.5425C82.4479 77.5843 82.4479 76.5241 82.0717 75.566L82.0717 75.566L82.0708 75.5638C81.8834 75.1176 81.6091 74.7114 81.2632 74.3677L81.2632 74.3677L81.2624 74.3669C80.914 74.0284 80.5037 73.7568 80.0529 73.5663L80.0522 73.566C79.5721 73.3674 79.0549 73.269 78.5338 73.277C78.0129 73.2701 77.4961 73.3684 77.0159 73.5659C76.5589 73.7531 76.1433 74.0251 75.7922 74.367L75.7922 74.367L75.791 74.3682C75.449 74.7125 75.1791 75.1189 74.9966 75.5647ZM76.8972 79.2313C76.6144 79.0204 76.3769 78.7573 76.1982 78.4573C75.974 78.0242 75.8572 77.5458 75.8572 77.0606C75.8572 76.5753 75.9741 76.0966 76.1986 75.6633C76.4263 75.2678 76.7564 74.9371 77.1561 74.7044C77.4636 74.5297 77.8034 74.416 78.1562 74.3697C78.5091 74.3235 78.868 74.3457 79.212 74.4351C79.5561 74.5246 79.8786 74.6794 80.161 74.8907C80.4429 75.1017 80.6793 75.3647 80.8568 75.6646C81.0892 76.0951 81.2106 76.5742 81.2106 77.0606C81.2106 77.5476 81.089 78.0272 80.856 78.4581C80.6377 78.8559 80.3112 79.1877 79.912 79.4167C79.6034 79.5918 79.2625 79.7058 78.9086 79.7522C78.5546 79.7987 78.1947 79.7765 77.8496 79.6871C77.5044 79.5977 77.1808 79.4428 76.8972 79.2313Z" fill="white" stroke="white" stroke-width="0.2"/>
<path d="M92.5306 73.4794V73.3794H92.4306H91.5399H91.4399V73.4794V78.5672L86.0581 73.0514L85.8865 72.8756V73.1213V80.6419V80.7419H85.9865H86.8771H86.9771V80.6419V75.5541L92.359 81.0698L92.5306 81.2457V81V73.4794Z" fill="white" stroke="white" stroke-width="0.2"/>
<path d="M98.2477 77.5362L99.1407 75.3807L100.117 77.5362H98.2477ZM100.572 78.5548L101.507 80.7199L101.533 80.7803H101.599H102.608H102.763L102.699 80.639L99.2932 73.1184L99.2021 72.9172L99.111 73.1184L95.7056 80.639L95.6416 80.7803H95.7967H96.7921H96.8583L96.8842 80.7194L97.8041 78.5548H100.572Z" fill="white" stroke="white" stroke-width="0.2"/>
<path d="M106.938 73.4794V73.3735L106.832 73.3795L105.942 73.4307L105.847 73.4361V73.5305V80.693V80.793H105.947H109.72H109.82V80.693V79.8744V79.7744H109.72H106.938V73.4794Z" fill="white" stroke="white" stroke-width="0.2"/>
</g>
<defs>
<clipPath id="clip0_58_421">
<rect width="126" height="81" fill="white"/>
</clipPath>
</defs>
</svg>
