<svg width="28" height="28" viewBox="0 0 28 28" fill="none" xmlns="http://www.w3.org/2000/svg">
<path d="M23.335 4.66687H4.66836C4.04952 4.66687 3.45602 4.9127 3.01844 5.35029C2.58085 5.78787 2.33502 6.38136 2.33502 7.0002V21.0002C2.33502 21.619 2.58085 22.2125 3.01844 22.6501C3.45602 23.0877 4.04952 23.3335 4.66836 23.3335H23.335C23.9539 23.3335 24.5474 23.0877 24.9849 22.6501C25.4225 22.2125 25.6684 21.619 25.6684 21.0002V7.0002C25.6684 6.38136 25.4225 5.78787 24.9849 5.35029C24.5474 4.9127 23.9539 4.66687 23.335 4.66687ZM23.335 10.1502L14.0017 16.3732L4.66836 10.1502V7.3467L14.0017 13.5685L23.335 7.3467V10.1502Z" fill="white"/>
</svg>
