<svg width="28" height="28" viewBox="0 0 28 28" fill="none" xmlns="http://www.w3.org/2000/svg">
<path d="M23.902 19.9969L19.1595 15.6849C18.9353 15.4812 18.6408 15.3725 18.338 15.3818C18.0352 15.3912 17.7478 15.5179 17.5367 15.7351L14.7448 18.6062C14.0728 18.4779 12.7218 18.0567 11.3312 16.6696C9.94051 15.2777 9.51935 13.9232 9.39452 13.2559L12.2633 10.4629C12.4808 10.2519 12.6077 9.96453 12.617 9.66165C12.6264 9.35876 12.5175 9.06412 12.3135 8.84007L8.00268 4.09874C7.79856 3.87399 7.51487 3.73766 7.21186 3.71871C6.90885 3.69976 6.61038 3.79967 6.37985 3.99724L3.84818 6.16841C3.64648 6.37084 3.52609 6.64026 3.50985 6.92557C3.49235 7.21724 3.15868 14.1262 8.51601 19.4859C13.1897 24.1584 19.044 24.5002 20.6563 24.5002C20.892 24.5002 21.0367 24.4932 21.0752 24.4909C21.3604 24.4749 21.6297 24.354 21.8312 24.1514L24.0012 21.6186C24.1995 21.3888 24.3002 21.0905 24.2817 20.7876C24.2631 20.4846 24.1269 20.2008 23.902 19.9969Z" fill="white"/>
</svg>
