<?xml version="1.0" standalone="no"?>
<!DOCTYPE svg PUBLIC "-//W3C//DTD SVG 20010904//EN"
 "http://www.w3.org/TR/2001/REC-SVG-20010904/DTD/svg10.dtd">
<svg version="1.0" xmlns="http://www.w3.org/2000/svg"
 width="512.000000pt" height="512.000000pt" viewBox="0 0 512.000000 512.000000"
 preserveAspectRatio="xMidYMid meet">
<metadata>
Created by potrace 1.14, written by Peter Selinger 2001-2017
</metadata>
<g transform="translate(0.000000,512.000000) scale(0.100000,-0.100000)"
fill="#000000" stroke="none">
<path d="M1375 4753 c-504 -46 -954 -450 -1198 -1078 -47 -120 -105 -322 -122
-425 -3 -19 -8 -42 -10 -50 -2 -8 -7 -37 -11 -65 -3 -27 -8 -58 -10 -68 -19
-100 -26 -533 -11 -662 12 -101 19 -152 31 -215 3 -14 7 -41 10 -60 10 -70 66
-270 107 -381 199 -543 546 -930 959 -1069 136 -46 224 -59 378 -54 62 2 116
5 120 8 4 2 27 7 50 11 24 3 77 17 118 31 l75 25 52 -48 c164 -149 374 -240
642 -279 88 -13 326 -7 433 10 229 37 457 112 675 223 165 84 370 219 492 324
219 189 374 354 509 543 242 338 387 683 441 1051 15 103 13 420 -4 475 -5 19
-12 46 -15 60 -43 210 -149 406 -300 555 -131 129 -276 214 -458 269 -80 24
-99 28 -218 46 -58 9 -358 6 -400 -4 -14 -3 -41 -8 -60 -10 -239 -34 -558
-156 -808 -307 -55 -34 -64 -36 -69 -21 -32 91 -85 215 -128 302 -49 98 -168
288 -211 336 -11 12 -39 45 -63 74 -192 225 -446 380 -716 435 -67 14 -217 23
-280 18z"/>
</g>
</svg>
