<?xml version="1.0" standalone="no"?>
<!DOCTYPE svg PUBLIC "-//W3C//DTD SVG 20010904//EN"
 "http://www.w3.org/TR/2001/REC-SVG-20010904/DTD/svg10.dtd">
<svg version="1.0" xmlns="http://www.w3.org/2000/svg"
 width="512.000000pt" height="512.000000pt" viewBox="0 0 512.000000 512.000000"
 preserveAspectRatio="xMidYMid meet">
<metadata>
Created by potrace 1.14, written by Peter Selinger 2001-2017
</metadata>
<g transform="translate(0.000000,512.000000) scale(0.100000,-0.100000)"
fill="#000000" stroke="none">
<path d="M2505 5060 c-176 -28 -286 -61 -418 -126 -203 -100 -341 -231 -431
-410 -70 -139 -96 -250 -101 -434 -10 -366 156 -724 523 -1130 76 -84 188
-197 558 -561 225 -221 275 -274 371 -397 67 -85 173 -251 173 -270 0 -5 8
-26 19 -48 77 -162 69 -436 -20 -618 -48 -99 -56 -111 -117 -173 -145 -149
-324 -221 -589 -239 -201 -13 -391 42 -576 168 -123 84 -302 278 -392 427 -43
70 -54 76 -138 84 -44 4 -57 2 -58 -9 -1 -8 -2 -17 -3 -21 -2 -10 -18 -103
-21 -123 -9 -60 -67 -429 -70 -445 -3 -11 -7 -38 -10 -60 -5 -35 -16 -104 -40
-245 -15 -92 -16 -110 -3 -111 7 -1 29 -4 48 -6 36 -5 48 -5 191 -1 l85 3 110
-56 c129 -67 267 -120 413 -158 58 -16 111 -29 116 -29 39 -5 104 -15 125 -19
50 -9 367 -11 430 -2 36 5 79 12 95 14 130 19 305 78 440 148 228 119 425 310
543 528 32 61 101 226 107 261 3 11 9 35 14 52 9 28 19 79 36 176 14 75 14
346 1 430 -48 304 -190 578 -460 890 -149 172 -329 346 -685 665 -122 109
-330 324 -389 404 -113 151 -151 246 -146 370 5 165 54 282 158 379 108 100
231 144 391 138 153 -6 278 -69 390 -196 22 -25 43 -47 46 -50 11 -10 66 -96
90 -140 13 -25 24 -46 25 -48 3 -4 148 -42 150 -39 1 1 28 133 59 292 31 160
70 361 87 448 17 86 29 159 27 161 -2 2 -35 6 -74 10 -113 9 -151 16 -315 56
-260 64 -312 72 -490 75 -117 1 -197 -3 -275 -15z"/>
</g>
</svg>
